<?xml version="1.0" standalone="no"?>
<!DOCTYPE svg PUBLIC "-//W3C//DTD SVG 20010904//EN"
 "http://www.w3.org/TR/2001/REC-SVG-20010904/DTD/svg10.dtd">
<svg version="1.0" xmlns="http://www.w3.org/2000/svg"
 width="55.000000pt" height="55.000000pt" viewBox="0 0 55.000000 55.000000"
 preserveAspectRatio="xMidYMid meet">

<g transform="translate(0.000000,55.000000) scale(0.100000,-0.100000)"
fill="#000000" stroke="none">
<path d="M132 447 l-53 -53 3 -170 3 -169 190 0 190 0 0 220 0 220 -140 3
-140 3 -53 -54z m283 -172 l0 -166 -140 0 -140 0 -3 129 -3 129 43 39 43 39
100 -2 100 -1 0 -167z"/>
<path d="M237 403 c-4 -3 -7 -17 -7 -29 0 -17 -7 -23 -27 -26 -20 -2 -28 -9
-28 -23 0 -17 7 -20 45 -20 l45 0 3 53 c2 39 0 52 -11 52 -7 0 -17 -3 -20 -7z"/>
</g>
</svg>
