<?xml version="1.0" standalone="no"?>
<!DOCTYPE svg PUBLIC "-//W3C//DTD SVG 20010904//EN"
 "http://www.w3.org/TR/2001/REC-SVG-20010904/DTD/svg10.dtd">
<svg version="1.0" xmlns="http://www.w3.org/2000/svg"
 width="55.000000pt" height="55.000000pt" viewBox="0 0 55.000000 55.000000"
 preserveAspectRatio="xMidYMid meet">

<g transform="translate(0.000000,55.000000) scale(0.100000,-0.100000)"
fill="#000000" stroke="none">
<path d="M311 424 c-18 -15 -33 -39 -37 -60 -6 -33 -8 -35 -37 -28 -50 11 -95
32 -130 64 -19 16 -37 27 -41 23 -11 -12 -6 -69 9 -89 19 -25 19 -35 0 -28
-26 11 -17 -26 16 -58 23 -24 27 -33 17 -40 -10 -6 -7 -14 15 -33 15 -14 36
-25 45 -25 28 -1 -39 -33 -83 -40 l-40 -7 40 -18 c63 -28 161 -24 229 9 90 44
156 141 156 230 0 20 7 36 20 44 23 14 27 34 5 26 -17 -7 -21 11 -5 21 21 13
9 24 -14 14 -18 -8 -30 -7 -54 5 -44 23 -76 20 -111 -10z"/>
</g>
</svg>
